<mxfile host="app.diagrams.net" modified="2023-01-21T12:31:07.916Z" agent="5.0 (X11)" etag="xmEn3KQXK2TrxSdAJnQ6" version="20.8.8" type="github">
  <diagram name="Page-1" id="-M_uNK5rN6GhEuXcht4a">
    <mxGraphModel dx="2284" dy="1921" grid="1" gridSize="10" guides="1" tooltips="1" connect="1" arrows="1" fold="1" page="1" pageScale="1" pageWidth="850" pageHeight="1100" math="0" shadow="0">
      <root>
        <mxCell id="0" />
        <mxCell id="1" parent="0" />
        <mxCell id="rFCLsrt8F1_oHLS2VPp5-3" style="edgeStyle=none;shape=connector;rounded=0;orthogonalLoop=1;jettySize=auto;html=1;exitX=1;exitY=0;exitDx=0;exitDy=0;entryX=0.07;entryY=0.975;entryDx=0;entryDy=0;entryPerimeter=0;labelBackgroundColor=default;strokeColor=default;fontFamily=Helvetica;fontSize=11;fontColor=default;endArrow=none;" edge="1" parent="1" source="MHk7TzPafF4EgfAT-jyR-1" target="rFCLsrt8F1_oHLS2VPp5-1">
          <mxGeometry relative="1" as="geometry" />
        </mxCell>
        <mxCell id="MHk7TzPafF4EgfAT-jyR-1" value="Avion" style="whiteSpace=wrap;html=1;align=center;" parent="1" vertex="1">
          <mxGeometry x="-40" y="150" width="100" height="40" as="geometry" />
        </mxCell>
        <mxCell id="MHk7TzPafF4EgfAT-jyR-7" style="edgeStyle=none;shape=connector;rounded=0;orthogonalLoop=1;jettySize=auto;html=1;exitX=1;exitY=1;exitDx=0;exitDy=0;entryX=0;entryY=0;entryDx=0;entryDy=0;labelBackgroundColor=default;strokeColor=default;fontFamily=Helvetica;fontSize=11;fontColor=default;endArrow=none;" parent="1" source="MHk7TzPafF4EgfAT-jyR-5" target="MHk7TzPafF4EgfAT-jyR-1" edge="1">
          <mxGeometry relative="1" as="geometry" />
        </mxCell>
        <mxCell id="MHk7TzPafF4EgfAT-jyR-5" value="&lt;div&gt;Oznaka&lt;/div&gt;" style="ellipse;whiteSpace=wrap;html=1;align=center;fontFamily=Helvetica;fontSize=11;fontColor=default;" parent="1" vertex="1">
          <mxGeometry x="-140" y="110" width="100" height="40" as="geometry" />
        </mxCell>
        <mxCell id="rFCLsrt8F1_oHLS2VPp5-9" style="edgeStyle=none;shape=connector;rounded=0;orthogonalLoop=1;jettySize=auto;html=1;exitX=1;exitY=1;exitDx=0;exitDy=0;entryX=0;entryY=0;entryDx=0;entryDy=0;labelBackgroundColor=default;strokeColor=default;fontFamily=Helvetica;fontSize=11;fontColor=default;endArrow=none;" edge="1" parent="1" source="MHk7TzPafF4EgfAT-jyR-8" target="rFCLsrt8F1_oHLS2VPp5-8">
          <mxGeometry relative="1" as="geometry" />
        </mxCell>
        <mxCell id="MHk7TzPafF4EgfAT-jyR-8" value="Model" style="whiteSpace=wrap;html=1;align=center;fontFamily=Helvetica;fontSize=11;fontColor=default;" parent="1" vertex="1">
          <mxGeometry x="-40" y="350" width="100" height="40" as="geometry" />
        </mxCell>
        <mxCell id="MHk7TzPafF4EgfAT-jyR-10" style="edgeStyle=none;shape=connector;rounded=0;orthogonalLoop=1;jettySize=auto;html=1;exitX=0.5;exitY=1;exitDx=0;exitDy=0;entryX=0.5;entryY=0;entryDx=0;entryDy=0;labelBackgroundColor=default;strokeColor=default;fontFamily=Helvetica;fontSize=11;fontColor=default;endArrow=none;" parent="1" source="MHk7TzPafF4EgfAT-jyR-9" target="MHk7TzPafF4EgfAT-jyR-8" edge="1">
          <mxGeometry relative="1" as="geometry" />
        </mxCell>
        <mxCell id="MHk7TzPafF4EgfAT-jyR-11" style="edgeStyle=none;shape=connector;rounded=0;orthogonalLoop=1;jettySize=auto;html=1;exitX=0.5;exitY=0;exitDx=0;exitDy=0;entryX=0.5;entryY=1;entryDx=0;entryDy=0;labelBackgroundColor=default;strokeColor=default;fontFamily=Helvetica;fontSize=11;fontColor=default;endArrow=none;" parent="1" source="MHk7TzPafF4EgfAT-jyR-9" target="MHk7TzPafF4EgfAT-jyR-1" edge="1">
          <mxGeometry relative="1" as="geometry" />
        </mxCell>
        <mxCell id="MHk7TzPafF4EgfAT-jyR-9" value="Ima" style="shape=rhombus;perimeter=rhombusPerimeter;whiteSpace=wrap;html=1;align=center;fontFamily=Helvetica;fontSize=11;fontColor=default;" parent="1" vertex="1">
          <mxGeometry x="-50" y="240" width="120" height="60" as="geometry" />
        </mxCell>
        <mxCell id="MHk7TzPafF4EgfAT-jyR-12" value="Ime" style="ellipse;whiteSpace=wrap;html=1;align=center;fontFamily=Helvetica;fontSize=11;fontColor=default;" parent="1" vertex="1">
          <mxGeometry x="-160" y="380" width="100" height="40" as="geometry" />
        </mxCell>
        <mxCell id="MHk7TzPafF4EgfAT-jyR-13" value="nosivost" style="ellipse;whiteSpace=wrap;html=1;align=center;fontFamily=Helvetica;fontSize=11;fontColor=default;" parent="1" vertex="1">
          <mxGeometry x="-160" y="320" width="100" height="40" as="geometry" />
        </mxCell>
        <mxCell id="MHk7TzPafF4EgfAT-jyR-14" value="Broj putnika" style="ellipse;whiteSpace=wrap;html=1;align=center;fontFamily=Helvetica;fontSize=11;fontColor=default;" parent="1" vertex="1">
          <mxGeometry x="-140" y="440" width="100" height="40" as="geometry" />
        </mxCell>
        <mxCell id="MHk7TzPafF4EgfAT-jyR-17" style="edgeStyle=none;shape=connector;rounded=0;orthogonalLoop=1;jettySize=auto;html=1;exitX=0.5;exitY=1;exitDx=0;exitDy=0;entryX=0;entryY=0.5;entryDx=0;entryDy=0;labelBackgroundColor=default;strokeColor=default;fontFamily=Helvetica;fontSize=11;fontColor=default;endArrow=none;" parent="1" source="MHk7TzPafF4EgfAT-jyR-15" target="MHk7TzPafF4EgfAT-jyR-16" edge="1">
          <mxGeometry relative="1" as="geometry" />
        </mxCell>
        <mxCell id="rFCLsrt8F1_oHLS2VPp5-7" style="edgeStyle=none;shape=connector;rounded=0;orthogonalLoop=1;jettySize=auto;html=1;exitX=0;exitY=0;exitDx=0;exitDy=0;entryX=1;entryY=1;entryDx=0;entryDy=0;labelBackgroundColor=default;strokeColor=default;fontFamily=Helvetica;fontSize=11;fontColor=default;endArrow=none;" edge="1" parent="1" source="MHk7TzPafF4EgfAT-jyR-15" target="rFCLsrt8F1_oHLS2VPp5-4">
          <mxGeometry relative="1" as="geometry" />
        </mxCell>
        <mxCell id="rFCLsrt8F1_oHLS2VPp5-23" style="edgeStyle=none;shape=connector;rounded=0;orthogonalLoop=1;jettySize=auto;html=1;exitX=0.75;exitY=0;exitDx=0;exitDy=0;entryX=0.433;entryY=0.967;entryDx=0;entryDy=0;entryPerimeter=0;labelBackgroundColor=default;strokeColor=default;fontFamily=Helvetica;fontSize=11;fontColor=default;endArrow=none;" edge="1" parent="1" source="MHk7TzPafF4EgfAT-jyR-15" target="rFCLsrt8F1_oHLS2VPp5-22">
          <mxGeometry relative="1" as="geometry" />
        </mxCell>
        <mxCell id="MHk7TzPafF4EgfAT-jyR-15" value="Zaposleni" style="whiteSpace=wrap;html=1;align=center;fontFamily=Helvetica;fontSize=11;fontColor=default;" parent="1" vertex="1">
          <mxGeometry x="620" y="350" width="100" height="40" as="geometry" />
        </mxCell>
        <mxCell id="MHk7TzPafF4EgfAT-jyR-16" value="IS_A" style="triangle;whiteSpace=wrap;html=1;fontFamily=Helvetica;fontSize=11;fontColor=default;rotation=90;" parent="1" vertex="1">
          <mxGeometry x="640" y="420" width="60" height="80" as="geometry" />
        </mxCell>
        <mxCell id="MHk7TzPafF4EgfAT-jyR-18" value="Menadzer" style="whiteSpace=wrap;html=1;align=center;fontFamily=Helvetica;fontSize=11;fontColor=default;" parent="1" vertex="1">
          <mxGeometry x="520" y="510" width="100" height="40" as="geometry" />
        </mxCell>
        <mxCell id="MHk7TzPafF4EgfAT-jyR-19" value="Pilot" style="whiteSpace=wrap;html=1;align=center;fontFamily=Helvetica;fontSize=11;fontColor=default;" parent="1" vertex="1">
          <mxGeometry x="660" y="510" width="100" height="40" as="geometry" />
        </mxCell>
        <mxCell id="MHk7TzPafF4EgfAT-jyR-20" value="Pomocno osoblje" style="whiteSpace=wrap;html=1;align=center;fontFamily=Helvetica;fontSize=11;fontColor=default;" parent="1" vertex="1">
          <mxGeometry x="780" y="510" width="100" height="40" as="geometry" />
        </mxCell>
        <mxCell id="MHk7TzPafF4EgfAT-jyR-21" value="Radnike na odrzavanju" style="whiteSpace=wrap;html=1;align=center;fontFamily=Helvetica;fontSize=11;fontColor=default;" parent="1" vertex="1">
          <mxGeometry x="910" y="510" width="100" height="40" as="geometry" />
        </mxCell>
        <mxCell id="MHk7TzPafF4EgfAT-jyR-22" value="Ime" style="ellipse;whiteSpace=wrap;html=1;align=center;fontFamily=Helvetica;fontSize=11;fontColor=default;" parent="1" vertex="1">
          <mxGeometry x="490" y="330" width="100" height="40" as="geometry" />
        </mxCell>
        <mxCell id="MHk7TzPafF4EgfAT-jyR-23" value="Prezime" style="ellipse;whiteSpace=wrap;html=1;align=center;fontFamily=Helvetica;fontSize=11;fontColor=default;" parent="1" vertex="1">
          <mxGeometry x="490" y="390" width="100" height="40" as="geometry" />
        </mxCell>
        <mxCell id="MHk7TzPafF4EgfAT-jyR-24" value="jmbg" style="ellipse;whiteSpace=wrap;html=1;align=center;fontFamily=Helvetica;fontSize=11;fontColor=default;" parent="1" vertex="1">
          <mxGeometry x="760" y="330" width="100" height="40" as="geometry" />
        </mxCell>
        <mxCell id="MHk7TzPafF4EgfAT-jyR-25" value="Adresa" style="ellipse;whiteSpace=wrap;html=1;align=center;fontFamily=Helvetica;fontSize=11;fontColor=default;" parent="1" vertex="1">
          <mxGeometry x="760" y="390" width="100" height="40" as="geometry" />
        </mxCell>
        <mxCell id="MHk7TzPafF4EgfAT-jyR-26" value="Strucna sprema" style="ellipse;whiteSpace=wrap;html=1;align=center;fontFamily=Helvetica;fontSize=11;fontColor=default;" parent="1" vertex="1">
          <mxGeometry x="520" y="600" width="100" height="40" as="geometry" />
        </mxCell>
        <mxCell id="MHk7TzPafF4EgfAT-jyR-27" value="broj sati" style="ellipse;whiteSpace=wrap;html=1;align=center;fontFamily=Helvetica;fontSize=11;fontColor=default;" parent="1" vertex="1">
          <mxGeometry x="660" y="570" width="100" height="40" as="geometry" />
        </mxCell>
        <mxCell id="rFCLsrt8F1_oHLS2VPp5-1" value="grad" style="whiteSpace=wrap;html=1;align=center;" vertex="1" parent="1">
          <mxGeometry x="120" width="100" height="40" as="geometry" />
        </mxCell>
        <mxCell id="rFCLsrt8F1_oHLS2VPp5-19" style="edgeStyle=none;shape=connector;rounded=0;orthogonalLoop=1;jettySize=auto;html=1;exitX=1;exitY=0.5;exitDx=0;exitDy=0;labelBackgroundColor=default;strokeColor=default;fontFamily=Helvetica;fontSize=11;fontColor=default;endArrow=none;" edge="1" parent="1" source="rFCLsrt8F1_oHLS2VPp5-2">
          <mxGeometry relative="1" as="geometry">
            <mxPoint x="690" y="20" as="targetPoint" />
          </mxGeometry>
        </mxCell>
        <mxCell id="rFCLsrt8F1_oHLS2VPp5-2" value="let" style="whiteSpace=wrap;html=1;align=center;" vertex="1" parent="1">
          <mxGeometry x="520" width="100" height="40" as="geometry" />
        </mxCell>
        <mxCell id="rFCLsrt8F1_oHLS2VPp5-5" style="edgeStyle=none;shape=connector;rounded=0;orthogonalLoop=1;jettySize=auto;html=1;exitX=1;exitY=0.5;exitDx=0;exitDy=0;entryX=0;entryY=0.5;entryDx=0;entryDy=0;labelBackgroundColor=default;strokeColor=default;fontFamily=Helvetica;fontSize=11;fontColor=default;endArrow=none;" edge="1" parent="1" source="rFCLsrt8F1_oHLS2VPp5-4" target="rFCLsrt8F1_oHLS2VPp5-2">
          <mxGeometry relative="1" as="geometry" />
        </mxCell>
        <mxCell id="rFCLsrt8F1_oHLS2VPp5-6" style="edgeStyle=none;shape=connector;rounded=0;orthogonalLoop=1;jettySize=auto;html=1;exitX=0;exitY=0.5;exitDx=0;exitDy=0;entryX=1;entryY=0.5;entryDx=0;entryDy=0;labelBackgroundColor=default;strokeColor=default;fontFamily=Helvetica;fontSize=11;fontColor=default;endArrow=none;" edge="1" parent="1" source="rFCLsrt8F1_oHLS2VPp5-4" target="rFCLsrt8F1_oHLS2VPp5-1">
          <mxGeometry relative="1" as="geometry" />
        </mxCell>
        <mxCell id="rFCLsrt8F1_oHLS2VPp5-4" value="let" style="shape=associativeEntity;whiteSpace=wrap;html=1;align=center;fontFamily=Helvetica;fontSize=11;fontColor=default;" vertex="1" parent="1">
          <mxGeometry x="310" y="-5" width="110" height="50" as="geometry" />
        </mxCell>
        <mxCell id="rFCLsrt8F1_oHLS2VPp5-10" style="edgeStyle=none;shape=connector;rounded=0;orthogonalLoop=1;jettySize=auto;html=1;exitX=1;exitY=0.5;exitDx=0;exitDy=0;entryX=0;entryY=0;entryDx=0;entryDy=0;labelBackgroundColor=default;strokeColor=default;fontFamily=Helvetica;fontSize=11;fontColor=default;endArrow=none;" edge="1" parent="1" source="rFCLsrt8F1_oHLS2VPp5-8" target="MHk7TzPafF4EgfAT-jyR-19">
          <mxGeometry relative="1" as="geometry" />
        </mxCell>
        <mxCell id="rFCLsrt8F1_oHLS2VPp5-8" value="Licenca" style="shape=associativeEntity;whiteSpace=wrap;html=1;align=center;fontFamily=Helvetica;fontSize=11;fontColor=default;" vertex="1" parent="1">
          <mxGeometry x="190" y="430" width="110" height="50" as="geometry" />
        </mxCell>
        <mxCell id="rFCLsrt8F1_oHLS2VPp5-13" style="edgeStyle=none;shape=connector;rounded=0;orthogonalLoop=1;jettySize=auto;html=1;exitX=0.5;exitY=1;exitDx=0;exitDy=0;entryX=0.25;entryY=0;entryDx=0;entryDy=0;labelBackgroundColor=default;strokeColor=default;fontFamily=Helvetica;fontSize=11;fontColor=default;endArrow=none;" edge="1" parent="1" source="rFCLsrt8F1_oHLS2VPp5-11" target="rFCLsrt8F1_oHLS2VPp5-8">
          <mxGeometry relative="1" as="geometry" />
        </mxCell>
        <mxCell id="rFCLsrt8F1_oHLS2VPp5-11" value="broj_sati" style="ellipse;whiteSpace=wrap;html=1;align=center;fontFamily=Helvetica;fontSize=11;fontColor=default;" vertex="1" parent="1">
          <mxGeometry x="140" y="360" width="100" height="40" as="geometry" />
        </mxCell>
        <mxCell id="rFCLsrt8F1_oHLS2VPp5-14" style="edgeStyle=none;shape=connector;rounded=0;orthogonalLoop=1;jettySize=auto;html=1;exitX=0;exitY=1;exitDx=0;exitDy=0;labelBackgroundColor=default;strokeColor=default;fontFamily=Helvetica;fontSize=11;fontColor=default;endArrow=none;" edge="1" parent="1" source="rFCLsrt8F1_oHLS2VPp5-12">
          <mxGeometry relative="1" as="geometry">
            <mxPoint x="263" y="432" as="targetPoint" />
          </mxGeometry>
        </mxCell>
        <mxCell id="rFCLsrt8F1_oHLS2VPp5-12" value="kategorija" style="ellipse;whiteSpace=wrap;html=1;align=center;fontFamily=Helvetica;fontSize=11;fontColor=default;" vertex="1" parent="1">
          <mxGeometry x="280" y="360" width="100" height="40" as="geometry" />
        </mxCell>
        <mxCell id="rFCLsrt8F1_oHLS2VPp5-15" value="Dionica" style="whiteSpace=wrap;html=1;align=center;fontFamily=Helvetica;fontSize=11;fontColor=default;" vertex="1" parent="1">
          <mxGeometry x="860" width="100" height="40" as="geometry" />
        </mxCell>
        <mxCell id="rFCLsrt8F1_oHLS2VPp5-25" style="edgeStyle=none;shape=connector;rounded=0;orthogonalLoop=1;jettySize=auto;html=1;exitX=0;exitY=1;exitDx=0;exitDy=0;entryX=1;entryY=0;entryDx=0;entryDy=0;labelBackgroundColor=default;strokeColor=default;fontFamily=Helvetica;fontSize=11;fontColor=default;endArrow=none;" edge="1" parent="1" source="rFCLsrt8F1_oHLS2VPp5-16" target="rFCLsrt8F1_oHLS2VPp5-15">
          <mxGeometry relative="1" as="geometry" />
        </mxCell>
        <mxCell id="rFCLsrt8F1_oHLS2VPp5-16" value="pocetni_grad" style="ellipse;whiteSpace=wrap;html=1;align=center;fontFamily=Helvetica;fontSize=11;fontColor=default;" vertex="1" parent="1">
          <mxGeometry x="960" y="-70" width="100" height="40" as="geometry" />
        </mxCell>
        <mxCell id="rFCLsrt8F1_oHLS2VPp5-24" style="edgeStyle=none;shape=connector;rounded=0;orthogonalLoop=1;jettySize=auto;html=1;exitX=0;exitY=1;exitDx=0;exitDy=0;entryX=1;entryY=0.5;entryDx=0;entryDy=0;labelBackgroundColor=default;strokeColor=default;fontFamily=Helvetica;fontSize=11;fontColor=default;endArrow=none;" edge="1" parent="1" source="rFCLsrt8F1_oHLS2VPp5-17" target="rFCLsrt8F1_oHLS2VPp5-15">
          <mxGeometry relative="1" as="geometry" />
        </mxCell>
        <mxCell id="rFCLsrt8F1_oHLS2VPp5-17" value="krajni_grad" style="ellipse;whiteSpace=wrap;html=1;align=center;fontFamily=Helvetica;fontSize=11;fontColor=default;" vertex="1" parent="1">
          <mxGeometry x="1000" y="-10" width="100" height="40" as="geometry" />
        </mxCell>
        <mxCell id="rFCLsrt8F1_oHLS2VPp5-21" style="edgeStyle=none;shape=connector;rounded=0;orthogonalLoop=1;jettySize=auto;html=1;exitX=1;exitY=0.5;exitDx=0;exitDy=0;entryX=0;entryY=0.5;entryDx=0;entryDy=0;labelBackgroundColor=default;strokeColor=default;fontFamily=Helvetica;fontSize=11;fontColor=default;endArrow=none;" edge="1" parent="1" target="rFCLsrt8F1_oHLS2VPp5-15">
          <mxGeometry relative="1" as="geometry">
            <mxPoint x="810" y="20" as="sourcePoint" />
          </mxGeometry>
        </mxCell>
        <mxCell id="rFCLsrt8F1_oHLS2VPp5-22" value="ima" style="shape=rhombus;perimeter=rhombusPerimeter;whiteSpace=wrap;html=1;align=center;fontFamily=Helvetica;fontSize=11;fontColor=default;" vertex="1" parent="1">
          <mxGeometry x="690" y="-10" width="120" height="60" as="geometry" />
        </mxCell>
      </root>
    </mxGraphModel>
  </diagram>
</mxfile>
